<?xml version="1.0" encoding="UTF-8"?>
<svg width="16px" height="17px" viewBox="0 0 16 17" version="1.1" xmlns="http://www.w3.org/2000/svg" xmlns:xlink="http://www.w3.org/1999/xlink">
    <title>multiple-19</title>
    <g id="Page-1" stroke="none" stroke-width="1" fill="none" fill-rule="evenodd">
        <g id="fitness-pal" transform="translate(-51.000000, -405.000000)" fill="#A0A5BA" fill-rule="nonzero">
            <g id="sidenav">
                <g id="links" transform="translate(51.000000, 179.000000)">
                    <g id="community" transform="translate(0.000000, 208.000000)">
                        <g id="multiple-19" transform="translate(0.000000, 18.000000)">
                            <path d="M10.2,12.4 L7.5,10.4 C8.4,9.7 9,8.7 9,7.5 L9,6.7 C9,4.8 7.6,3.1 5.7,3 C3.7,2.9 2,4.5 2,6.5 L2,7.5 C2,8.7 2.6,9.7 3.5,10.4 L0.8,12.5 C0.3,12.9 0,13.5 0,14.1 L0,16 C0,16.6 0.4,17 1,17 L10,17 C10.6,17 11,16.6 11,16 L11,14 C11,13.4 10.7,12.8 10.2,12.4 Z" id="Path"></path>
                            <path d="M15.1,7.4 L13.3,6.2 C13.7,5.8 14,5.2 14,4.5 L14,3.6 C14,2.4 13.1,1.2 11.9,1 C10.7,0.8 9.7,1.5 9.2,2.4 C10.3,3.4 11,4.8 11,6.4 L11,7.4 C11,8.3 10.8,9.2 10.4,9.9 C10.4,9.9 11.6,10.8 11.6,10.9 L15,10.9 C15.6,10.9 16,10.5 16,9.9 L16,9.1 C16,8.4 15.7,7.8 15.1,7.4 Z" id="Path"></path>
                        </g>
                    </g>
                </g>
            </g>
        </g>
    </g>
</svg>