<?xml version="1.0" encoding="UTF-8"?>
<svg width="16px" height="15px" viewBox="0 0 16 15" version="1.1" xmlns="http://www.w3.org/2000/svg" xmlns:xlink="http://www.w3.org/1999/xlink">
    <title>aubergine</title>
    <g id="Page-1" stroke="none" stroke-width="1" fill="none" fill-rule="evenodd">
        <g id="fitness-pal-copy" transform="translate(-51.000000, -251.000000)" fill="#0054FE" fill-rule="nonzero">
            <g id="sidenav">
                <g id="links" transform="translate(51.000000, 179.000000)">
                    <g id="my-food" transform="translate(0.000000, 52.000000)">
                        <g id="aubergine" transform="translate(0.000000, 20.000000)">
                            <path d="M14.5,0 C13.4798112,0.0568219534 12.5445543,0.586394042 11.971,1.432 C10.3795473,0.665570723 8.48260835,0.9378605 7.171,2.121 C8.34167174,3.28108374 9.92289015,3.93225823 11.571,3.933 C11.5717418,5.58110985 12.2229163,7.16232826 13.383,8.333 C14.8118999,6.7477865 14.8825851,4.36099537 13.55,2.694 C13.7467115,2.33203199 14.0953578,2.07733672 14.5,2 C15.0522847,2 15.5,1.55228475 15.5,1 C15.5,0.44771525 15.0522847,0 14.5,0 Z" id="Path"></path>
                            <path d="M9.775,5.725 C8.92507236,5.53616939 8.1096684,5.21635021 7.358,4.777 C6.0457509,6.28304762 4.37490405,7.43386145 2.5,8.123 C0.857543028,8.58210931 -0.193930896,10.1831438 0.037326183,11.8728084 C0.268583262,13.562473 1.71158349,14.8220996 3.417,14.823 C6.475,14.823 9.46,11.674 11.279,8.972 C10.5475396,8.01189777 10.0342792,6.90381507 9.775,5.725 Z" id="Path"></path>
                        </g>
                    </g>
                </g>
            </g>
        </g>
    </g>
</svg>