<?xml version="1.0" encoding="UTF-8"?>
<svg width="12px" height="17px" viewBox="0 0 12 17" version="1.1" xmlns="http://www.w3.org/2000/svg" xmlns:xlink="http://www.w3.org/1999/xlink">
    <title>kettlebell</title>
    <g id="Page-1" stroke="none" stroke-width="1" fill="none" fill-rule="evenodd">
        <g id="fitness-pal" transform="translate(-53.000000, -302.000000)" fill="#A0A5BA" fill-rule="nonzero">
            <g id="sidenav">
                <g id="links" transform="translate(51.000000, 179.000000)">
                    <g id="exercise" transform="translate(2.000000, 104.000000)">
                        <g id="kettlebell" transform="translate(0.000000, 19.000000)">
                            <path d="M10.7506714,7.3449707 L11.5019531,3.5883789 C11.6791992,2.7036133 11.4526367,1.7958984 10.8803711,1.0981445 C10.3081055,0.4003906 9.4628906,0 8.5605469,0 L3.4394531,0 C2.5371094,0 1.6918945,0.4003906 1.1196289,1.0981445 C0.5473633,1.7958984 0.3208008,2.7036133 0.4980469,3.5883789 L1.2493286,7.3449707 C0.4689941,8.357666 0,9.6226807 0,11 C0,13.0881348 1.0678101,14.925354 2.6860352,16 L9.3139649,16 C10.9321899,14.925354 12,13.0881348 12,11 C12,9.6226807 11.5310059,8.357666 10.7506714,7.3449707 Z M2.6665039,2.3662109 C2.8569336,2.1333008 3.1386719,2 3.4394531,2 L8.5605469,2 C8.8613281,2 9.1430664,2.1333008 9.3334961,2.3662109 C9.5244141,2.5986328 9.6000977,2.9013671 9.5410156,3.1958007 L9.0163574,5.8191528 C8.1293945,5.3015747 7.1010132,5 6,5 C4.8989868,5 3.8706055,5.3015747 2.9836426,5.8191528 L2.4589844,3.1958008 C2.3999023,2.9013672 2.4755859,2.5986328 2.6665039,2.3662109 Z" id="Shape"></path>
                        </g>
                    </g>
                </g>
            </g>
        </g>
    </g>
</svg>