<?xml version="1.0" encoding="UTF-8"?>
<svg width="60px" height="60px" viewBox="0 0 60 60" version="1.1" xmlns="http://www.w3.org/2000/svg" xmlns:xlink="http://www.w3.org/1999/xlink">
    <title>Group</title>
    <g id="Page-1" stroke="none" stroke-width="1" fill="none" fill-rule="evenodd">
        <g id="fitness-pal" transform="translate(-882.000000, -143.000000)" fill="#FD5181">
            <g id="kpis" transform="translate(569.000000, 108.000000)">
                <g id="Group" transform="translate(313.000000, 35.000000)">
                    <g id="fat" fill-opacity="0.1">
                        <g id="fat-icon-copy">
                            <rect id="Rectangle-Copy-2" x="0" y="0" width="60" height="60" rx="6"></rect>
                        </g>
                    </g>
                    <g id="weight_kilogram_icon_138014" transform="translate(17.000000, 16.000000)" fill-rule="nonzero">
                        <path d="M12,0 C14.6509668,0 16.8,2.28832239 16.8,5.11111111 C16.8,6.04388889 16.572,6.91277778 16.152,7.66666667 L19.2,7.66666667 C20.34,7.66666667 21.3,8.52277778 21.54,9.66 C23.952,19.895 24,20.1633333 24,20.4444444 C24,21.8558388 22.9254834,23 21.6,23 L2.4,23 C1.0745166,23 0,21.8558388 0,20.4444444 C0,20.1633333 0.048,19.895 2.46,9.66 C2.7,8.52277778 3.66,7.66666667 4.8,7.66666667 L7.848,7.66666667 C7.428,6.91277778 7.2,6.04388889 7.2,5.11111111 C7.2,2.28832239 9.3490332,0 12,0 M12,2.55555556 C10.6745166,2.55555556 9.6,3.69971675 9.6,5.11111111 C9.6,6.52250547 10.6745166,7.66666667 12,7.66666667 C13.3254834,7.66666667 14.4,6.52250547 14.4,5.11111111 C14.4,3.69971675 13.3254834,2.55555556 12,2.55555556 M4.8,10.2222222 L4.8,20.4444444 L7.2,20.4444444 L7.2,17.25 L8.4,18.5277778 L8.4,20.4444444 L10.8,20.4444444 L10.8,17.8888889 L8.4,15.3333333 L10.8,12.7777778 L10.8,10.2222222 L8.4,10.2222222 L8.4,12.1388889 L7.2,13.4166667 L7.2,10.2222222 L4.8,10.2222222 M15.6,10.2222222 C14.268,10.2222222 13.2,11.3594444 13.2,12.7777778 L13.2,17.8888889 C13.2,19.3072222 14.268,20.4444444 15.6,20.4444444 L19.2,20.4444444 L19.2,14.0555556 L16.8,14.0555556 L16.8,17.8888889 L15.6,17.8888889 L15.6,12.7777778 L19.2,12.7777778 L19.2,10.2222222 L15.6,10.2222222 Z" id="Shape"></path>
                    </g>
                </g>
            </g>
        </g>
    </g>
</svg>